{"title":"Frost.2013.Swedish-Mixx","uid":10011385,"size":961069064,"categoryP":"video","categoryS":"movies","magnet":"?xt=urn:btih:14e1d211a70ab429640c34362e3f3043998f247a&amp;dn=Frost.2013.Swedish-Mixx&amp;tr=udp%3A%2F%2Ftracker.openbittorrent.com%3A80&amp;tr=udp%3A%2F%2Fopen.demonii.com%3A1337&amp;tr=udp%3A%2F%2Ftracker.coppersurfer.tk%3A6969&amp;tr=udp%3A%2F%2Fexodus.desync.com%3A6969","seeders":8,"leechers":0,"uploader":"Mixx2013","files":2,"time":1398104356,"description":"General\nComplete name                            : Frost.2013.Swedish-Mixx\nFormat                                   : AVI\nFormat/Info                              : Audio Video Interleave\nFile size                                : 961 MiB\nDuration                                 : 1h 42mn\nOverall bit rate                         : 1 254 Kbps\nOriginal movie name                      : Frozen\nWriting application                      : Lavf54.63.104\nIMDB:                                    : http://www.imdb.com/title/tt2294629\n\nVideo\nID                                       : 0\nFormat                                   : AVC\nFormat/Info                              : Advanced Video Codec\nFormat profile                           : &lt;a class=&quot;__cf_email__&quot; href=&quot;/cdn-cgi/l/email-protection&quot; data-cfemail=&quot;430e222a2d030f706d73&quot;&gt;[email&amp;#160;protected]&lt;/a&gt;&lt;script cf-hash='f9e31' type=&quot;text/javascript&quot;&gt;\n/* &lt;![CDATA[ */!function(){try{var t=&quot;currentScript&quot;in document?document.currentScript:function(){for(var t=document.getElementsByTagName(&quot;script&quot;),e=t.length;e--;)if(t[e].getAttribute(&quot;cf-hash&quot;))return t[e]}();if(t&amp;&amp;t.previousSibling){var e,r,n,i,c=t.previousSibling,a=c.getAttribute(&quot;data-cfemail&quot;);if(a){for(e=&quot;&quot;,r=parseInt(a.substr(0,2),16),n=2;a.length-n;n+=2)i=parseInt(a.substr(n,2),16)^r,e+=String.fromCharCode(i);e=document.createTextNode(e),c.parentNode.replaceChild(e,c)}}}catch(u){}}();/* ]]&gt; */&lt;/script&gt;\nFormat settings, CABAC                   : Yes\nFormat settings, ReFrames                : 1 frame\nFormat settings, GOP                     : M=1, N=24\nCodec ID                                 : H264\nDuration                                 : 1h 42mn\nBit rate                                 : 795 Kbps\nWidth                                    : 704 pixels\nHeight                                   : 316 pixels\nDisplay aspect ratio                     : 2.228\nFrame rate                               : 23.976 fps\nColor space                              : YUV\nChroma subsampling                       : 4:2:0\nBit depth                                : 8 bits\nScan type                                : Progressive\nBits/(Pixel*Frame)                       : 0.149\nStream size                              : 581 MiB (63%)\nWriting library                          : x264 core\nColor primaries                          : BT.601 NTSC\nTransfer characteristics                 : BT.709\nMatrix coefficients                      : BT.601\n\nAudio\nID                                       : 1\nFormat                                   : AC-3\nFormat/Info                              : Audio Coding 3\nMode extension                           : CM (complete main)\nFormat settings, Endianness              : Big\nCodec ID                                 : 2000\nDuration                                 : 1h 42mn\nBit rate mode                            : Constant\nBit rate                                 : 448 Kbps\nChannel(s)                               : 6 channels\nChannel positions                        : Front: L C R, Side: L R, LFE\nSampling rate                            : 48.0 KHz\nBit depth                                : 16 bits\nCompression mode                         : Lossy\nStream size                              : 327 MiB (36%)\nAlignment                                : Aligned on interleaves\nInterleave, duration                     : 32 ms (0.77 video frame)","torrent":{"xt":"urn:btih:14e1d211a70ab429640c34362e3f3043998f247a","amp;dn":"Frost.2013.Swedish-Mixx","amp;tr":["udp%3A%2F%2Ftracker.openbittorrent.com%3A80","udp%3A%2F%2Fopen.demonii.com%3A1337","udp%3A%2F%2Ftracker.coppersurfer.tk%3A6969","udp%3A%2F%2Fexodus.desync.com%3A6969"],"infoHash":"14e1d211a70ab429640c34362e3f3043998f247a","infoHashBuffer":{"type":"Buffer","data":[20,225,210,17,167,10,180,41,100,12,52,54,46,63,48,67,153,143,36,122]},"announce":[],"urlList":[]}}